<?xml version="1.0" standalone="no"?>
<!DOCTYPE svg PUBLIC "-//W3C//DTD SVG 20010904//EN"
 "http://www.w3.org/TR/2001/REC-SVG-20010904/DTD/svg10.dtd">
<svg version="1.0" xmlns="http://www.w3.org/2000/svg"
 width="1000.000000pt" height="515.000000pt" viewBox="0 0 1000.000000 515.000000"
 preserveAspectRatio="xMidYMid meet">

<g transform="translate(0.000000,515.000000) scale(0.100000,-0.100000)"
fill="#000000" stroke="none">
<path d="M0 2590 l0 -2560 4995 0 4995 0 0 2560 0 2560 -4995 0 -4995 0 0
-2560z m9870 0 l0 -2440 -4875 0 -4875 0 0 2440 0 2440 4875 0 4875 0 0 -2440z"/>
<path d="M753 4600 l-203 -199 1 -1683 c1 -1011 5 -1663 10 -1633 5 28 57 448
114 935 58 487 110 923 116 970 5 47 45 384 89 749 53 443 83 668 92 677 13
12 96 23 703 89 132 14 319 35 415 45 96 11 279 31 405 45 127 13 394 43 595
64 201 22 554 61 785 86 231 25 425 47 430 49 6 3 -746 5 -1670 5 l-1680 0
-202 -199z"/>
<path d="M9457 4110 c-7 -47 -177 -1467 -237 -1985 -118 -999 -160 -1329 -172
-1341 -13 -12 -95 -23 -703 -89 -132 -14 -319 -35 -415 -45 -96 -11 -278 -31
-405 -45 -126 -13 -394 -43 -595 -64 -201 -22 -554 -61 -785 -86 -231 -25
-424 -47 -430 -49 -5 -3 746 -5 1670 -5 l1680 0 203 199 202 199 -2 1683 c-2
926 -7 1658 -11 1628z"/>
<path d="M2117 3498 c-9 -5 -12 -101 -12 -345 l0 -338 264 -3 c166 -1 268 1
275 8 11 11 14 135 3 146 -4 4 -85 8 -180 8 l-172 1 0 50 0 50 163 3 163 2 -3
78 -3 77 -140 -3 c-185 -4 -187 -4 -183 56 l3 47 173 3 172 2 0 80 0 79 -256
3 c-141 2 -261 0 -267 -4z"/>
<path d="M3257 3502 c-21 -4 -19 9 -18 -194 1 -93 0 -168 -3 -168 -3 0 -35 39
-72 88 -37 48 -101 129 -141 180 l-74 92 -79 0 c-67 0 -79 -3 -83 -17 -2 -10
-3 -164 -3 -343 l1 -325 95 0 95 0 3 173 c1 96 7 172 12 172 8 0 85 -98 222
-282 l50 -68 73 0 c46 0 76 5 83 13 10 12 21 662 11 671 -6 5 -151 12 -172 8z"/>
<path d="M4237 3498 c-9 -5 -12 -101 -12 -345 l0 -338 264 -3 c166 -1 268 1
275 8 11 11 14 135 3 146 -4 4 -85 8 -180 8 l-172 1 0 50 0 50 163 3 163 2 -3
78 -3 77 -140 -3 c-185 -4 -187 -4 -183 56 l3 47 173 3 172 2 0 80 0 79 -256
3 c-141 2 -261 0 -267 -4z"/>
<path d="M4916 3494 c-8 -7 -11 -117 -11 -345 l0 -334 98 -3 98 -3 -1 78 c-3
160 -4 153 33 153 31 0 39 -8 113 -112 l79 -113 108 -3 c68 -2 107 1 107 8 0
5 -23 38 -50 72 -76 94 -126 171 -115 175 34 11 78 48 102 84 80 121 7 299
-139 337 -59 16 -408 21 -422 6z m373 -163 c29 -29 37 -85 17 -116 -20 -31
-44 -37 -131 -33 l-70 3 -3 83 -3 82 86 0 c71 0 88 -3 104 -19z"/>
<path d="M5978 3505 c-4 -4 0 -24 8 -44 56 -130 130 -325 196 -516 11 -33 28
-77 37 -97 l16 -37 76 -1 75 0 24 68 c27 80 91 246 95 251 5 5 30 -57 71 -174
52 -148 50 -146 140 -143 l76 3 23 70 c13 39 38 108 55 155 65 171 92 246 105
285 7 22 25 70 39 108 l26 67 -108 0 -107 0 -23 -67 c-33 -94 -62 -187 -80
-255 -8 -32 -18 -58 -22 -58 -4 0 -12 19 -18 43 -6 23 -17 62 -26 87 -8 25
-29 91 -47 148 -35 115 -42 121 -126 106 -45 -9 -47 -10 -65 -64 -10 -30 -36
-113 -56 -183 -21 -71 -42 -129 -47 -130 -5 -1 -13 16 -17 38 -5 22 -32 106
-60 188 l-51 147 -57 0 c-31 0 -77 3 -101 6 -24 3 -47 3 -51 -1z"/>
<path d="M7127 3498 c-9 -5 -12 -101 -12 -345 l0 -338 264 -3 c166 -1 268 1
275 8 11 11 14 135 3 146 -4 4 -85 8 -180 8 l-172 1 0 50 0 50 163 3 163 2 -3
78 -3 77 -140 -3 c-185 -4 -187 -4 -183 56 l3 47 173 3 172 2 0 80 0 79 -256
3 c-141 2 -261 0 -267 -4z"/>
<path d="M3524 3486 c-3 -7 -4 -42 -2 -77 l3 -64 96 -3 97 -3 7 -155 c4 -85 6
-203 4 -262 l-4 -107 96 -3 97 -3 1 256 c0 141 3 260 6 266 4 5 49 9 101 9
l94 0 0 80 0 80 -295 0 c-240 0 -297 -3 -301 -14z"/>
<path d="M7789 3498 c-1 -2 -3 -155 -5 -340 l-3 -338 24 -6 c41 -10 417 2 458
15 43 14 102 62 121 100 36 71 27 147 -26 207 -22 25 -29 40 -22 49 44 60 49
72 49 120 -1 73 -40 136 -102 167 -45 22 -61 23 -270 26 -123 2 -224 2 -224 0z
m394 -179 c22 -28 22 -35 -6 -63 -21 -21 -30 -23 -103 -19 -43 3 -85 6 -91 8
-8 3 -13 21 -13 44 0 55 17 63 115 56 65 -4 83 -9 98 -26z m-5 -235 c31 -21
41 -53 30 -86 -11 -32 -52 -41 -163 -36 l-70 3 -3 55 c-3 43 1 57 14 67 27 19
164 17 192 -3z"/>
<path d="M4939 2360 c-131 -23 -209 -101 -209 -208 0 -125 80 -191 266 -217
52 -7 101 -18 108 -24 23 -19 25 -50 6 -73 -14 -18 -30 -23 -89 -26 -76 -5
-109 4 -175 47 l-38 25 -20 -24 c-10 -14 -33 -41 -50 -59 l-31 -35 39 -34 c21
-19 64 -46 94 -61 48 -22 67 -26 147 -25 202 3 303 63 327 196 18 99 -50 191
-169 227 -39 12 -90 24 -115 27 -86 11 -120 35 -105 77 16 41 126 47 216 11
38 -16 41 -16 63 5 12 11 32 39 45 61 l22 40 -33 20 c-72 44 -208 67 -299 50z"/>
<path d="M6011 2359 c-190 -33 -317 -222 -281 -419 34 -187 169 -296 365 -294
135 1 257 50 291 115 10 21 14 67 14 174 0 80 -3 145 -7 146 -13 1 -182 1
-260 0 l-73 -1 0 -69 c0 -81 1 -81 100 -81 l68 0 6 -32 c9 -47 -12 -72 -76
-87 -152 -33 -247 55 -236 217 9 125 64 178 180 176 53 -1 76 -7 111 -28 l45
-26 51 46 c28 25 51 53 51 62 0 20 -45 52 -113 82 -56 25 -158 33 -236 19z"/>
<path d="M4087 2348 c-9 -5 -12 -101 -12 -345 l0 -338 264 -3 c166 -1 268 1
275 8 11 11 14 135 3 146 -4 4 -85 8 -180 8 l-172 1 0 50 0 50 163 3 163 2 -3
78 -3 77 -140 -3 c-185 -4 -187 -4 -183 56 l3 47 173 3 172 2 0 80 0 79 -256
3 c-141 2 -261 0 -267 -4z"/>
<path d="M6997 2352 c-21 -4 -19 9 -18 -194 1 -93 0 -168 -3 -168 -3 0 -35 39
-72 88 -37 48 -101 129 -141 180 l-74 92 -79 0 c-67 0 -79 -3 -83 -17 -2 -10
-3 -164 -3 -343 l1 -325 95 0 95 0 3 173 c1 96 7 172 12 172 8 0 85 -98 222
-282 l50 -68 73 0 c46 0 76 5 83 13 10 12 21 662 11 671 -6 5 -151 12 -172 8z"/>
<path d="M3319 2348 c-1 -1 -3 -154 -5 -339 l-4 -337 22 -6 c39 -10 301 -7
364 5 173 32 285 177 271 352 -9 115 -32 175 -86 227 -25 25 -69 57 -96 70
-47 23 -62 25 -257 28 -115 2 -208 2 -209 0z m381 -180 c60 -42 75 -71 75
-152 -1 -79 -19 -123 -67 -159 -29 -22 -176 -42 -193 -26 -9 9 -16 335 -8 352
2 4 39 7 82 7 64 0 84 -4 111 -22z"/>
<path d="M5420 2034 c1 -175 4 -330 7 -345 l6 -29 88 0 c49 0 89 1 90 3 5 24
9 613 4 644 l-6 43 -95 0 -94 0 0 -316z"/>
</g>
</svg>
