<?xml version="1.0" standalone="no"?>
<!DOCTYPE svg PUBLIC "-//W3C//DTD SVG 20010904//EN"
 "http://www.w3.org/TR/2001/REC-SVG-20010904/DTD/svg10.dtd">
<svg version="1.0" xmlns="http://www.w3.org/2000/svg"
 width="600.000000pt" height="309.000000pt" viewBox="0 0 600.000000 309.000000"
 preserveAspectRatio="xMidYMid meet">

<g transform="translate(0.000000,309.000000) scale(0.100000,-0.100000)"
fill="#000000" stroke="none">
<path d="M0 1545 l0 -1545 3000 0 3000 0 0 1545 0 1545 -3000 0 -3000 0 0
-1545z m5794 1339 c14 -14 16 -149 16 -1339 0 -1190 -2 -1325 -16 -1339 -14
-14 -281 -16 -2794 -16 -2513 0 -2780 2 -2794 16 -14 14 -16 149 -16 1339 0
1190 2 1325 16 1339 14 14 281 16 2794 16 2513 0 2780 -2 2794 -16z"/>
<path d="M873 2520 l-123 -119 1 -883 c1 -822 6 -1008 22 -888 4 25 13 106 22
180 31 267 46 397 60 515 21 174 42 356 65 550 11 94 25 206 30 250 5 44 15
124 21 177 6 54 16 104 23 111 7 9 66 20 176 31 91 10 199 21 240 27 41 5 140
16 220 24 146 15 210 22 460 49 138 15 225 25 480 51 80 9 161 19 180 22 33 6
34 6 10 13 -14 5 -416 8 -895 9 l-870 0 -122 -119z"/>
<path d="M5227 2460 c-4 -25 -14 -108 -22 -185 -16 -139 -30 -260 -60 -510
-45 -380 -48 -402 -90 -765 -29 -246 -37 -305 -46 -321 -9 -17 -62 -24 -724
-94 -82 -9 -206 -22 -275 -30 -69 -8 -192 -21 -275 -30 -273 -29 -429 -46
-475 -52 -121 -16 67 -21 876 -22 l871 -1 122 116 121 117 -1 886 c-1 825 -6
1011 -22 891z"/>
<path d="M1958 1919 c-7 -4 -10 -38 -9 -87 1 -44 -2 -83 -8 -86 -5 -4 -22 10
-38 30 -108 140 -106 139 -154 139 l-44 0 -3 -179 c-3 -196 -3 -196 55 -196
42 0 50 18 46 108 -2 57 0 72 11 72 8 0 43 -37 77 -82 34 -46 67 -86 73 -90
18 -12 63 -9 74 5 8 10 18 269 13 353 -1 13 -76 23 -93 13z"/>
<path d="M2878 1919 c-16 -9 -18 -29 -18 -189 l0 -179 37 -7 c52 -10 68 4 68
60 1 25 7 51 14 58 11 11 19 6 44 -27 66 -82 83 -95 127 -95 58 0 60 19 10 79
l-43 51 37 40 c30 34 36 47 36 86 0 40 -5 51 -39 85 l-39 39 -95 0 c-52 0
-101 2 -109 5 -7 2 -21 0 -30 -6z m192 -97 c44 -36 4 -78 -66 -70 -31 3 -48
39 -32 71 12 23 69 23 98 -1z"/>
<path d="M3454 1916 c-3 -7 7 -39 22 -72 14 -32 43 -108 64 -169 30 -86 44
-113 64 -125 43 -25 75 1 101 79 12 36 26 66 32 68 10 4 53 -92 53 -117 0 -17
48 -42 76 -38 25 3 31 14 90 173 35 94 64 178 64 188 0 14 -9 17 -49 17 -29 0
-53 -5 -58 -12 -13 -21 -43 -111 -43 -130 0 -24 -19 -33 -35 -17 -7 8 -22 46
-34 85 -22 75 -35 88 -76 78 -19 -5 -28 -19 -44 -67 -10 -34 -22 -75 -25 -90
-10 -44 -26 -28 -57 58 -15 44 -35 85 -44 91 -22 16 -95 15 -101 0z"/>
<path d="M1337 1913 c-4 -3 -7 -86 -7 -184 0 -160 2 -178 18 -183 9 -3 72 -5
140 -5 118 2 124 3 139 25 14 22 14 26 0 48 -15 22 -20 23 -94 19 -64 -3 -80
-1 -90 12 -24 34 -5 45 76 45 82 0 101 9 101 46 0 35 -23 45 -100 43 -73 -2
-95 8 -83 38 4 9 28 13 89 13 82 0 85 1 95 26 5 15 7 35 4 45 -6 17 -18 19
-144 19 -76 0 -141 -3 -144 -7z"/>
<path d="M2110 1880 c0 -42 0 -42 90 -53 12 -2 16 -28 20 -142 l5 -140 35 -3
c61 -4 63 2 63 142 0 82 4 129 11 135 6 5 29 11 51 13 32 2 41 8 49 29 19 56
12 59 -164 59 l-160 0 0 -40z"/>
<path d="M2497 1914 c-4 -4 -7 -85 -7 -179 0 -132 3 -175 13 -184 9 -7 60 -10
141 -10 120 2 128 3 142 24 14 22 10 53 -9 66 -4 3 -41 4 -82 2 -58 -3 -76 0
-89 13 -29 29 -3 44 78 44 76 0 96 9 96 46 0 35 -23 45 -93 43 -71 -2 -87 3
-87 32 0 17 8 19 84 19 93 0 110 9 104 57 l-3 28 -141 3 c-77 1 -143 -1 -147
-4z"/>
<path d="M4076 1893 c-9 -49 -5 -316 5 -336 9 -17 22 -18 145 -15 140 4 153 8
154 50 0 35 -25 45 -103 41 -59 -3 -78 0 -90 12 -32 31 -10 45 72 45 81 0 101
9 101 45 0 36 -20 45 -102 45 -77 0 -78 0 -78 25 0 25 1 25 83 25 45 0 88 4
95 9 8 5 12 22 10 42 l-3 34 -142 3 -141 3 -6 -28z"/>
<path d="M4447 1913 c-4 -3 -7 -84 -7 -178 0 -126 3 -175 13 -182 16 -14 152
-15 219 -3 89 17 137 97 93 156 -17 22 -20 60 -5 69 6 3 10 23 10 45 0 31 -6
44 -35 69 l-36 31 -123 0 c-67 0 -126 -3 -129 -7z m191 -79 c16 -5 22 -13 20
-28 -2 -17 -11 -22 -49 -24 -33 -2 -50 2 -59 14 -26 30 28 54 88 38z m26 -150
c32 -31 9 -54 -55 -54 -55 0 -76 18 -59 49 14 26 90 30 114 5z"/>
<path d="M2954 1289 c-52 -15 -78 -52 -78 -111 0 -44 4 -54 28 -73 31 -24 89
-45 128 -45 13 0 33 -7 44 -15 19 -15 19 -15 -5 -35 -29 -25 -61 -25 -111 0
l-39 20 -28 -24 c-34 -30 -26 -49 33 -84 34 -20 49 -22 107 -18 71 5 128 31
147 66 13 24 13 86 0 110 -15 28 -69 57 -133 70 -59 12 -83 34 -56 51 8 6 44
7 80 4 62 -6 66 -5 79 20 12 22 12 28 -2 41 -29 30 -130 42 -194 23z"/>
<path d="M3559 1293 c-36 -6 -108 -69 -125 -110 -31 -74 -10 -176 48 -230 27
-26 98 -53 137 -53 51 0 129 30 151 57 18 23 20 38 18 102 l-3 76 -88 3 c-95
3 -105 -3 -93 -53 5 -21 12 -25 47 -25 49 0 63 -24 30 -52 -79 -63 -188 39
-146 138 8 20 23 43 33 50 21 16 69 18 111 3 25 -9 36 -8 56 5 78 51 -39 110
-176 89z"/>
<path d="M2106 1282 c-8 -13 -9 -348 -2 -361 10 -16 164 -14 223 4 95 28 145
116 123 220 -23 110 -79 145 -234 145 -58 0 -107 -4 -110 -8z m205 -95 c40
-30 50 -87 24 -137 -11 -21 -27 -32 -57 -41 -63 -17 -72 -6 -76 86 -2 43 -1
84 2 92 7 17 85 17 107 0z"/>
<path d="M2517 1284 c-9 -9 -9 -336 -1 -358 5 -14 27 -16 138 -16 72 0 136 4
142 8 18 12 24 42 14 63 -9 16 -22 19 -94 19 -87 0 -115 12 -102 45 4 12 24
15 90 15 81 0 84 1 90 25 4 14 2 35 -4 46 -10 18 -18 19 -78 14 -74 -7 -111 7
-99 39 5 13 22 16 90 16 94 0 111 9 105 57 l-3 28 -141 3 c-77 1 -143 -1 -147
-4z"/>
<path d="M3257 1284 c-13 -13 -8 -349 5 -362 16 -16 73 -15 87 2 8 9 11 68 9
187 l-3 174 -45 3 c-25 2 -49 0 -53 -4z"/>
<path d="M3859 1283 c-1 -5 -3 -85 -5 -179 -4 -193 -3 -198 63 -192 l38 3 3
88 c2 60 7 87 15 86 7 0 41 -39 77 -87 59 -79 69 -87 102 -90 55 -5 59 11 56
205 l-3 168 -50 0 -50 0 0 -82 c0 -45 -3 -84 -6 -87 -7 -7 -39 28 -107 118
-41 53 -45 56 -88 56 -24 0 -44 -3 -45 -7z"/>
</g>
</svg>
