<?xml version="1.0" standalone="no"?>
<!DOCTYPE svg PUBLIC "-//W3C//DTD SVG 20010904//EN"
 "http://www.w3.org/TR/2001/REC-SVG-20010904/DTD/svg10.dtd">
<svg version="1.0" xmlns="http://www.w3.org/2000/svg"
 width="520.000000pt" height="520.000000pt" viewBox="0 0 520.000000 520.000000"
 preserveAspectRatio="xMidYMid meet">

<g transform="translate(0.000000,520.000000) scale(0.100000,-0.100000)"
fill="#000000" stroke="none">
<path d="M1600 2905 l0 -515 1000 0 1000 0 0 515 0 515 -1000 0 -1000 0 0
-515z m1935 0 l0 -450 -935 0 -935 0 -3 440 c-1 242 0 446 3 453 3 10 196 12
937 10 l933 -3 0 -450z"/>
<path d="M1893 3231 l-43 -39 1 -303 c1 -167 3 -295 6 -284 2 11 19 147 37
303 18 155 35 285 37 287 3 2 135 18 294 35 160 17 295 33 300 35 6 2 -125 4
-290 4 l-300 0 -42 -38z"/>
<path d="M3342 3200 c-20 -180 -70 -582 -74 -585 -2 -2 -139 -19 -303 -37
l-300 -33 302 -3 302 -2 41 37 40 38 -2 305 c-2 168 -5 294 -6 280z"/>
<path d="M2042 2968 l3 -63 48 -2 c39 -1 47 1 47 16 0 14 -6 18 -30 15 -16 -2
-30 1 -30 6 0 5 12 10 27 12 39 4 42 28 4 28 -17 0 -31 5 -31 10 0 6 14 10 30
10 20 0 30 5 30 15 0 11 -12 15 -50 15 l-51 0 3 -62z"/>
<path d="M2170 2965 c0 -51 3 -65 15 -65 10 0 15 10 15 30 0 17 3 30 6 30 3 0
17 -13 31 -30 13 -16 29 -30 34 -30 5 0 9 29 9 65 0 51 -3 65 -15 65 -10 0
-15 -10 -15 -32 l-1 -33 -27 33 c-41 49 -52 42 -52 -33z"/>
<path d="M2300 3015 c0 -8 9 -15 20 -15 17 0 20 -7 20 -51 0 -42 3 -50 17 -47
13 2 17 13 16 47 0 34 3 45 18 48 11 3 19 12 19 19 0 10 -15 14 -55 14 -42 0
-55 -3 -55 -15z"/>
<path d="M2432 2968 l3 -63 45 0 c33 0 45 4 45 15 0 9 -7 14 -19 12 -10 -2
-25 0 -35 4 -12 6 -7 9 18 13 45 8 54 31 12 31 -17 0 -31 5 -31 10 0 6 14 10
30 10 20 0 30 5 30 15 0 11 -12 15 -50 15 l-51 0 3 -62z"/>
<path d="M2552 2968 c2 -47 7 -63 18 -63 8 0 17 11 20 25 6 24 6 24 20 4 20
-27 37 -37 51 -29 7 5 5 13 -6 25 -11 12 -13 20 -6 25 15 8 14 48 -1 63 -7 7
-32 12 -55 12 l-44 0 3 -62z m76 20 c-7 -19 -38 -22 -38 -4 0 10 9 16 21 16
12 0 19 -5 17 -12z"/>
<path d="M2750 3027 c0 -16 50 -122 59 -125 6 -2 17 11 25 29 13 32 14 32 21
8 7 -23 22 -39 37 -39 3 0 14 24 24 53 9 28 19 58 22 65 2 7 -4 12 -15 12 -14
0 -23 -10 -30 -32 l-10 -33 -13 33 c-6 17 -18 32 -25 32 -6 0 -17 -15 -22 -32
l-10 -33 -13 33 c-8 20 -19 32 -31 32 -10 0 -19 -1 -19 -3z"/>
<path d="M2960 2965 l0 -66 48 3 c34 2 47 7 47 18 0 10 -8 14 -27 12 -14 -2
-29 2 -33 7 -4 7 5 11 24 11 21 0 31 5 31 15 0 10 -10 15 -30 15 -16 0 -30 5
-30 10 0 6 16 10 35 10 24 0 35 5 35 15 0 11 -12 15 -50 15 l-50 0 0 -65z"/>
<path d="M3082 2968 c3 -58 4 -62 29 -65 15 -2 38 1 52 6 23 9 26 16 25 53 -2
57 -12 68 -65 68 l-44 0 3 -62z m68 22 c0 -5 -6 -10 -14 -10 -8 0 -18 5 -21
10 -3 6 3 10 14 10 12 0 21 -4 21 -10z m5 -39 c3 -5 1 -13 -5 -16 -15 -9 -43
3 -35 15 8 13 32 13 40 1z"/>
<path d="M2300 2754 l0 -67 41 6 c48 6 79 31 79 64 0 36 -34 63 -80 63 l-40 0
0 -66z m78 5 c2 -19 -2 -28 -17 -32 -26 -6 -31 0 -31 35 0 25 4 29 23 26 15
-2 23 -11 25 -29z"/>
<path d="M2440 2754 l0 -65 47 3 c52 3 74 28 24 28 -16 0 -33 5 -36 10 -4 6 7
10 24 10 21 0 31 5 31 15 0 10 -10 15 -30 15 -40 0 -39 18 2 22 55 5 46 28
-11 28 l-51 0 0 -66z"/>
<path d="M2564 2806 c-11 -28 1 -49 35 -61 39 -13 27 -29 -14 -19 -18 4 -25 2
-25 -9 0 -27 65 -38 88 -15 25 25 14 55 -25 71 l-38 15 33 1 c21 1 32 6 32 16
0 21 -78 21 -86 1z"/>
<path d="M2682 2758 c2 -48 7 -63 18 -63 11 0 16 15 18 63 3 57 1 62 -18 62
-19 0 -21 -5 -18 -62z"/>
<path d="M2757 2802 c-23 -25 -21 -68 3 -92 38 -38 100 -19 100 30 0 27 -3 30
-30 30 -20 0 -30 -5 -30 -15 0 -8 7 -15 15 -15 8 0 15 -4 15 -10 0 -16 -38
-11 -48 6 -17 31 -3 54 35 54 46 0 39 24 -8 28 -24 2 -40 -3 -52 -16z"/>
<path d="M2888 2813 c-2 -5 -3 -33 -3 -63 0 -44 3 -55 18 -58 13 -3 17 4 17
30 l1 33 28 -32 c41 -49 51 -43 51 32 0 51 -3 65 -15 65 -10 0 -15 -10 -15
-32 l-1 -33 -27 33 c-26 31 -47 41 -54 25z"/>
</g>
</svg>
