<?xml version="1.0" encoding="utf-8"?>
<!-- Generator: Adobe Illustrator 23.0.0, SVG Export Plug-In . SVG Version: 6.00 Build 0)  -->
<svg version="1.1" id="Layer_1" xmlns="http://www.w3.org/2000/svg" xmlns:xlink="http://www.w3.org/1999/xlink" x="0px" y="0px"
	 width="52px" height="18px" viewBox="0 0 52 18" style="enable-background:new 0 0 52 18;" xml:space="preserve">
<style type="text/css">
	.st0{fill:#FFFFFF;}
</style>
<g>
	<rect x="25.9" y="0.3" class="st0" width="25.9" height="17.5"/>
	<path d="M51.5,0.5v17H26.1v-17H51.5 M52,0H25.6v18H52V0L52,0z"/>
</g>
<rect width="25.9" height="18"/>
<g>
	<path class="st0" d="M2.6,9.1v1.4H1.9V7.1h3.6v0.5h-3v1h2.8v0.5H2.6z"/>
	<path class="st0" d="M9.8,10.6L7.9,7.8l-1.8,2.8H5.4l2.3-3.5h0.5l2.3,3.5H9.8z"/>
	<path class="st0" d="M11.1,10.6V7.1h2.9c0.2,0,0.4,0,0.5,0.1s0.3,0.1,0.3,0.2c0.1,0.1,0.1,0.1,0.2,0.2C15,7.6,15,7.7,15,7.8v0.3
		c0,0.2,0,0.3-0.1,0.4c-0.1,0.1-0.2,0.2-0.3,0.2c0.1,0,0.2,0.1,0.3,0.2C15,9,15.1,9.2,15.1,9.3v0.5c0,0.1,0,0.2-0.1,0.3
		c0,0.1-0.1,0.2-0.2,0.2c-0.1,0.1-0.2,0.1-0.3,0.2c-0.1,0-0.3,0.1-0.5,0.1H11.1z M14.4,7.9c0-0.1,0-0.2-0.1-0.2
		c-0.1,0-0.2-0.1-0.3-0.1h-2.2v0.9h2.2c0.2,0,0.3,0,0.3-0.1c0.1,0,0.1-0.1,0.1-0.2V7.9z M14.4,9.3c0-0.1,0-0.2-0.1-0.2
		C14.2,9.1,14.1,9,14,9h-2.2v1H14c0.1,0,0.2,0,0.3-0.1c0.1,0,0.1-0.1,0.1-0.3V9.3z"/>
	<path class="st0" d="M15.9,10.6V7.1h3.6v0.5h-3v0.9h2.8V9h-2.8v1.1h3v0.5H15.9z"/>
	<path class="st0" d="M23.7,10.6L22.9,9h-1.9v1.6h-0.7V7.1h3c0.2,0,0.4,0,0.5,0.1c0.1,0,0.3,0.1,0.3,0.2s0.2,0.2,0.2,0.3
		c0,0.1,0.1,0.2,0.1,0.3v0.3c0,0.2-0.1,0.4-0.2,0.6C24.1,8.9,23.9,9,23.6,9l0.8,1.6H23.7z M23.8,7.9c0-0.2-0.1-0.3-0.4-0.3h-2.3v0.9
		h2.3c0.3,0,0.4-0.1,0.4-0.3V7.9z"/>
</g>
<g>
	<path d="M29.1,10.6l-2.3-3.5h0.8l1.8,2.8l1.8-2.8h0.7l-2.3,3.5H29.1z"/>
	<path d="M32.5,10.6V7.1h0.7v3.5H32.5z"/>
	<path d="M34.2,10.6v-0.5h3.1c0.3,0,0.4-0.1,0.4-0.3V9.3c0-0.2-0.1-0.3-0.4-0.3h-2.1c-0.2,0-0.4,0-0.5-0.1c-0.1,0-0.3-0.1-0.3-0.2
		c-0.1-0.1-0.2-0.2-0.2-0.3s-0.1-0.2-0.1-0.3V7.9c0-0.1,0-0.2,0.1-0.3c0-0.1,0.1-0.2,0.2-0.3c0.1-0.1,0.2-0.1,0.3-0.2
		c0.1,0,0.3-0.1,0.5-0.1h3v0.5h-3c-0.3,0-0.4,0.1-0.4,0.3v0.2c0,0.2,0.1,0.3,0.4,0.3h2.1c0.2,0,0.4,0,0.5,0.1c0.1,0,0.3,0.1,0.3,0.2
		c0.1,0.1,0.2,0.2,0.2,0.3s0.1,0.2,0.1,0.3v0.4c0,0.1,0,0.2-0.1,0.3s-0.1,0.2-0.2,0.3c-0.1,0.1-0.2,0.1-0.3,0.2
		c-0.1,0-0.3,0.1-0.5,0.1H34.2z"/>
	<path d="M40.2,10.6c-0.2,0-0.4,0-0.5-0.1s-0.3-0.1-0.3-0.2c-0.1-0.1-0.2-0.2-0.2-0.3s-0.1-0.2-0.1-0.3V7.1h0.7v2.7
		c0,0.2,0.1,0.3,0.4,0.3h2.2c0.3,0,0.4-0.1,0.4-0.3V7.1h0.7v2.7c0,0.1,0,0.2,0,0.3c0,0.1-0.1,0.2-0.1,0.3c-0.1,0.1-0.2,0.1-0.3,0.2
		s-0.3,0.1-0.5,0.1H40.2z"/>
	<path d="M49.1,10.6V8.1l-1.8,2.5h-0.5L45,8.1v2.5h-0.6V7.1H45l2.1,2.9l2.1-2.9h0.6v3.5H49.1z"/>
</g>
</svg>
