<?xml version="1.0" standalone="no"?>
<!DOCTYPE svg PUBLIC "-//W3C//DTD SVG 20010904//EN"
 "http://www.w3.org/TR/2001/REC-SVG-20010904/DTD/svg10.dtd">
<svg version="1.0" xmlns="http://www.w3.org/2000/svg"
 width="547.000000pt" height="547.000000pt" viewBox="0 0 547.000000 547.000000"
 preserveAspectRatio="xMidYMid meet">

<g transform="translate(0.000000,547.000000) scale(0.100000,-0.100000)"
fill="#000000" stroke="none">
<path d="M0 4705 l0 -765 765 0 765 0 0 765 0 765 -765 0 -765 0 0 -765z
m1310 0 l0 -545 -545 0 -545 0 0 545 0 545 545 0 545 0 0 -545z"/>
<path d="M440 4705 l0 -325 325 0 325 0 0 325 0 325 -325 0 -325 0 0 -325z"/>
<path d="M2190 5360 l0 -110 -220 0 -220 0 0 -220 0 -220 110 0 110 0 0 -110
0 -110 -110 0 -110 0 0 -435 0 -435 -220 0 -220 0 0 -110 0 -110 -215 0 -215
0 0 110 0 110 -110 0 -110 0 0 -330 0 -330 110 0 110 0 0 -110 0 -110 -110 0
-110 0 0 -105 0 -105 110 0 110 0 0 105 0 105 215 0 215 0 0 -105 0 -105 110
0 110 0 0 -110 0 -110 -220 0 -220 0 0 -110 0 -110 -105 0 -105 0 0 110 0 110
-220 0 -220 0 0 110 0 110 -110 0 -110 0 0 105 0 105 110 0 110 0 0 110 0 110
-220 0 -220 0 0 -215 0 -215 110 0 110 0 0 -110 0 -110 -110 0 -110 0 0 -110
0 -110 110 0 110 0 0 -110 0 -110 -110 0 -110 0 0 -110 0 -110 330 0 330 0 0
110 0 110 -110 0 -110 0 0 110 0 110 220 0 220 0 0 -220 0 -220 435 0 435 0 0
-220 0 -220 110 0 110 0 0 -110 0 -110 110 0 110 0 0 -105 0 -105 220 0 220 0
0 105 0 105 -220 0 -220 0 0 110 0 110 435 0 435 0 0 110 0 110 220 0 220 0 0
-220 0 -220 -220 0 -220 0 0 -105 0 -105 -110 0 -110 0 0 -110 0 -110 110 0
110 0 0 110 0 110 110 0 110 0 0 -220 0 -220 -435 0 -435 0 0 -110 0 -110 545
0 545 0 0 -110 0 -110 110 0 110 0 0 110 0 110 110 0 110 0 0 220 0 220 -110
0 -110 0 0 110 0 110 330 0 330 0 0 -110 0 -110 105 0 105 0 0 -110 0 -110
110 0 110 0 0 -110 0 -110 110 0 110 0 0 -110 0 -110 220 0 220 0 0 110 0 110
-220 0 -220 0 0 220 0 220 110 0 110 0 0 -110 0 -110 110 0 110 0 0 110 0 110
-110 0 -110 0 0 110 0 110 110 0 110 0 0 105 0 105 -110 0 -110 0 0 110 0 110
110 0 110 0 0 220 0 220 -110 0 -110 0 0 -110 0 -110 -220 0 -220 0 0 110 0
110 110 0 110 0 0 110 0 110 110 0 110 0 0 110 0 110 110 0 110 0 0 325 0 325
-220 0 -220 0 0 -105 0 -105 -110 0 -110 0 0 105 0 105 -110 0 -110 0 0 440 0
440 -325 0 -325 0 0 -110 0 -110 -110 0 -110 0 0 110 0 110 -110 0 -110 0 0
-110 0 -110 -110 0 -110 0 0 -110 0 -110 220 0 220 0 0 -220 0 -220 330 0 330
0 0 -105 0 -105 105 0 105 0 0 -110 0 -110 -105 0 -105 0 0 -110 0 -110 -110
0 -110 0 0 220 0 220 -110 0 -110 0 0 -110 0 -110 -110 0 -110 0 0 -110 0
-110 -110 0 -110 0 0 110 0 110 -110 0 -110 0 0 215 0 215 110 0 110 0 0 110
0 110 -220 0 -220 0 0 -325 0 -325 -215 0 -215 0 0 110 0 110 105 0 105 0 0
215 0 215 -435 0 -435 0 0 110 0 110 110 0 110 0 0 110 0 110 -220 0 -220 0 0
110 0 110 110 0 110 0 0 330 0 330 110 0 110 0 0 -330 0 -330 110 0 110 0 0
-220 0 -220 325 0 325 0 0 330 0 330 110 0 110 0 0 110 0 110 110 0 110 0 0
-110 0 -110 110 0 110 0 0 220 0 220 -220 0 -220 0 0 325 0 325 110 0 110 0 0
-110 0 -110 110 0 110 0 0 330 0 330 -440 0 -440 0 0 -220 0 -220 110 0 110 0
0 -110 0 -110 -325 0 -325 0 0 330 0 330 -110 0 -110 0 0 -110z m1090 -220 l0
-110 -110 0 -110 0 0 110 0 110 110 0 110 0 0 -110z m-1090 -220 l0 -110 110
0 110 0 0 -110 0 -110 215 0 215 0 0 -215 0 -215 110 0 110 0 0 -110 0 -110
-110 0 -110 0 0 110 0 110 -105 0 -105 0 0 -220 0 -220 -110 0 -110 0 0 220 0
220 110 0 110 0 0 110 0 110 -220 0 -220 0 0 215 0 215 -110 0 -110 0 0 110 0
110 110 0 110 0 0 -110z m-660 -1530 l0 -110 -110 0 -110 0 0 -110 0 -110 330
0 330 0 0 -110 0 -110 110 0 110 0 0 -105 0 -105 110 0 110 0 0 105 0 105 110
0 110 0 0 -105 0 -105 -110 0 -110 0 0 -110 0 -110 110 0 110 0 0 -330 0 -330
-110 0 -110 0 0 -110 0 -110 -110 0 -110 0 0 -110 0 -110 -110 0 -110 0 0 220
0 220 -110 0 -110 0 0 220 0 220 -110 0 -110 0 0 -110 0 -110 -220 0 -220 0 0
110 0 110 220 0 220 0 0 110 0 110 110 0 110 0 0 -110 0 -110 110 0 110 0 0
-110 0 -110 220 0 220 0 0 110 0 110 -110 0 -110 0 0 220 0 220 -110 0 -110 0
0 105 0 105 -110 0 -110 0 0 -105 0 -105 -110 0 -110 0 0 105 0 105 -110 0
-110 0 0 110 0 110 -215 0 -215 0 0 110 0 110 215 0 215 0 0 110 0 110 110 0
110 0 0 -110z m2630 0 l0 -110 110 0 110 0 0 -110 0 -110 -110 0 -110 0 0 110
0 110 -110 0 -110 0 0 110 0 110 110 0 110 0 0 -110z m1090 -980 l0 -220 -110
0 -110 0 0 -110 0 -110 -110 0 -110 0 0 -110 0 -110 -110 0 -110 0 0 110 0
110 -105 0 -105 0 0 110 0 110 105 0 105 0 0 110 0 110 110 0 110 0 0 -110 0
-110 110 0 110 0 0 220 0 220 110 0 110 0 0 -220z m-4810 -110 l0 -110 -110 0
-110 0 0 110 0 110 110 0 110 0 0 -110z m3060 -330 l0 -220 -330 0 -330 0 0
220 0 220 330 0 330 0 0 -220z m660 110 l0 -110 -220 0 -220 0 0 110 0 110
220 0 220 0 0 -110z m220 -660 l0 -330 -330 0 -330 0 0 330 0 330 330 0 330 0
0 -330z m430 0 l0 -110 110 0 110 0 0 -110 0 -110 110 0 110 0 0 -105 0 -105
-110 0 -110 0 0 -110 0 -110 -220 0 -220 0 0 110 0 110 220 0 220 0 0 105 0
105 -110 0 -110 0 0 110 0 110 -110 0 -110 0 0 110 0 110 110 0 110 0 0 -110z"/>
<path d="M4590 2080 l0 -110 110 0 110 0 0 110 0 110 -110 0 -110 0 0 -110z"/>
<path d="M3940 1420 l0 -110 110 0 110 0 0 110 0 110 -110 0 -110 0 0 -110z"/>
<path d="M3940 4705 l0 -765 765 0 765 0 0 765 0 765 -765 0 -765 0 0 -765z
m1310 0 l0 -545 -545 0 -545 0 0 545 0 545 545 0 545 0 0 -545z"/>
<path d="M4380 4705 l0 -325 325 0 325 0 0 325 0 325 -325 0 -325 0 0 -325z"/>
<path d="M0 3610 l0 -110 220 0 220 0 0 110 0 110 -220 0 -220 0 0 -110z"/>
<path d="M4810 3610 l0 -110 220 0 220 0 0 -110 0 -110 -110 0 -110 0 0 -110
0 -110 220 0 220 0 0 220 0 220 -110 0 -110 0 0 110 0 110 -220 0 -220 0 0
-110z"/>
<path d="M0 765 l0 -765 765 0 765 0 0 765 0 765 -765 0 -765 0 0 -765z m1310
0 l0 -545 -545 0 -545 0 0 545 0 545 545 0 545 0 0 -545z"/>
<path d="M440 765 l0 -325 325 0 325 0 0 325 0 325 -325 0 -325 0 0 -325z"/>
<path d="M1750 770 l0 -110 110 0 110 0 0 -110 0 -110 -110 0 -110 0 0 -220 0
-220 220 0 220 0 0 330 0 330 -110 0 -110 0 0 110 0 110 -110 0 -110 0 0 -110z"/>
<path d="M4160 110 l0 -110 215 0 215 0 0 110 0 110 -215 0 -215 0 0 -110z"/>
</g>
</svg>
